<?xml version="1.0" standalone="no"?>
 <!DOCTYPE svg PUBLIC "-//W3C//DTD SVG 1.1//EN" 
 "http://www.w3.org/Graphics/SVG/1.1/DTD/svg11.dtd"> 
<svg
  xmlns:svg="http://www.w3.org/2000/svg"
  xmlns="http://www.w3.org/2000/svg"
  xmlns:xlink="http://www.w3.org/1999/xlink"
  version="1.1"
  width="13.728700cm" height="10.932160cm" viewBox="0 0 54050 43040">
<title>SVG Picture created as SofleKeyboardBottomPlate-brd.svg date 2021/01/09 15:10:45 </title>
  <desc>Picture generated by PCBNEW </desc>
<g style="fill:#000000; fill-opacity:1;stroke:#000000; stroke-opacity:1;
stroke-linecap:round; stroke-linejoin:round;"
 transform="translate(0 0) scale(1 1)">
</g>
<g style="fill:#000000; fill-opacity:0.0; 
stroke:#000000; stroke-width:-0.000393701; stroke-opacity:1; 
stroke-linecap:round; stroke-linejoin:round;">
<g >
</g>
<g >
</g>
<g >
</g>
<g >
</g>
<g >
</g>
<g style="fill:#000000; fill-opacity:0.0; 
stroke:#000000; stroke-width:-0.000393701; stroke-opacity:1; 
stroke-linecap:round; stroke-linejoin:round;">
</g>
<g style="fill:#000000; fill-opacity:0.0; 
stroke:#000000; stroke-width:39.3701; stroke-opacity:1; 
stroke-linecap:round; stroke-linejoin:round;">
<circle cx="16291.2" cy="8781.89" r="767.717" /> 
</g>
<g >
</g>
<g style="fill:#000000; fill-opacity:0.0; 
stroke:#000000; stroke-width:39.3701; stroke-opacity:1; 
stroke-linecap:round; stroke-linejoin:round;">
<circle cx="16291.2" cy="23742.4" r="767.717" /> 
</g>
<g >
</g>
<g style="fill:#000000; fill-opacity:0.0; 
stroke:#000000; stroke-width:39.3701; stroke-opacity:1; 
stroke-linecap:round; stroke-linejoin:round;">
<circle cx="6606.17" cy="30514.4" r="767.717" /> 
</g>
<g >
</g>
<g style="fill:#000000; fill-opacity:0.0; 
stroke:#000000; stroke-width:39.3701; stroke-opacity:1; 
stroke-linecap:round; stroke-linejoin:round;">
<circle cx="46291.2" cy="24687.4" r="767.717" /> 
</g>
<g >
</g>
<g style="fill:#000000; fill-opacity:0.0; 
stroke:#000000; stroke-width:39.3701; stroke-opacity:1; 
stroke-linecap:round; stroke-linejoin:round;">
<circle cx="46291.2" cy="9647.89" r="767.717" /> 
</g>
<g >
</g>
</g>
<g style="fill:#000000; fill-opacity:0.0; 
stroke:#000000; stroke-width:39.3701; stroke-opacity:1; 
stroke-linecap:round; stroke-linejoin:round;">
<path d="M53616 33207
L46249 33800
" />
<path d="M46249 33800
L46195 33807
" />
<path d="M46195 33807
L46144 33821
" />
<path d="M46144 33821
L46094 33840
" />
<path d="M46094 33840
L46047 33865
" />
<path d="M46047 33865
L46004 33896
" />
<path d="M46004 33896
L45964 33931
" />
<path d="M45964 33931
L45929 33971
" />
<path d="M45929 33971
L45898 34016
" />
<path d="M45898 34016
L42557 39503
" />
<path d="M42557 39503
L42523 39551
" />
<path d="M42523 39551
L42484 39594
" />
<path d="M42484 39594
L42440 39631
" />
<path d="M42440 39631
L42392 39662
" />
<path d="M42392 39662
L42340 39687
" />
<path d="M42340 39687
L42286 39705
" />
<path d="M42286 39705
L42229 39716
" />
<path d="M42229 39716
L42170 39720
" />
<path d="M42170 39720
L35979 39720
" />
<path d="M35979 39720
L35661 39709
" />
<path d="M35661 39709
L35344 39677
" />
<path d="M35344 39677
L35029 39623
" />
<path d="M35029 39623
L34719 39548
" />
<path d="M34719 39548
L28620 37854
" />
<path d="M28620 37854
L28440 37807
" />
<path d="M28440 37807
L28257 37767
" />
<path d="M28257 37767
L28074 37732
" />
<path d="M28074 37732
L27890 37704
" />
<path d="M27890 37704
L27705 37682
" />
<path d="M27705 37682
L27519 37666
" />
<path d="M27519 37666
L27332 37656
" />
<path d="M27332 37656
L27145 37653
" />
<path d="M27145 37653
L21154 37653
" />
<path d="M21154 37653
L20962 37658
" />
<path d="M20962 37658
L20771 37671
" />
<path d="M20771 37671
L20580 37694
" />
<path d="M20580 37694
L20392 37726
" />
<path d="M20392 37726
L20205 37767
" />
<path d="M20205 37767
L20020 37816
" />
<path d="M20020 37816
L19837 37875
" />
<path d="M19837 37875
L19657 37942
" />
<path d="M19657 37942
L7028 42997
" />
<path d="M7028 42997
L6948 43021
" />
<path d="M6948 43021
L6867 43030
" />
<path d="M6867 43030
L6788 43024
" />
<path d="M6788 43024
L6711 43005
" />
<path d="M6711 43005
L6638 42972
" />
<path d="M6638 42972
L6572 42927
" />
<path d="M6572 42927
L6514 42871
" />
<path d="M6514 42871
L6466 42803
" />
<path d="M6466 42803
L1161 33613
" />
<path d="M1161 33613
L1144 33579
" />
<path d="M1144 33579
L238 31648
" />
<path d="M238 31648
L187 31532
" />
<path d="M187 31532
L143 31414
" />
<path d="M143 31414
L106 31294
" />
<path d="M106 31294
L75 31172
" />
<path d="M75 31172
L51 31048
" />
<path d="M51 31048
L34 30924
" />
<path d="M34 30924
L23 30798
" />
<path d="M23 30798
L20 30672
" />
<path d="M20 30672
L19 473
" />
<path d="M19 473
L28 381
" />
<path d="M28 381
L55 296
" />
<path d="M55 296
L97 219
" />
<path d="M97 219
L152 152
" />
<path d="M152 152
L219 97
" />
<path d="M219 97
L296 55
" />
<path d="M296 55
L381 28
" />
<path d="M381 28
L473 19
" />
<path d="M473 19
L37908 19
" />
<path d="M37908 19
L38315 30
" />
<path d="M38315 30
L38776 60
" />
<path d="M38776 60
L39236 104
" />
<path d="M39236 104
L39640 159
" />
<path d="M39640 159
L53642 2429
" />
<path d="M53642 2429
L53721 2449
" />
<path d="M53721 2449
L53794 2482
" />
<path d="M53794 2482
L53859 2527
" />
<path d="M53859 2527
L53915 2582
" />
<path d="M53915 2582
L53960 2646
" />
<path d="M53960 2646
L53994 2717
" />
<path d="M53994 2717
L54015 2794
" />
<path d="M54015 2794
L54023 2876
" />
<path d="M54023 2876
L54033 32755
" />
<path d="M54033 32755
L54025 32841
" />
<path d="M54025 32841
L54001 32922
" />
<path d="M54001 32922
L53964 32997
" />
<path d="M53964 32997
L53913 33062
" />
<path d="M53913 33062
L53852 33118
" />
<path d="M53852 33118
L53781 33161
" />
<path d="M53781 33161
L53702 33192
" />
<path d="M53702 33192
L53616 33207
" />
<path d="M53616 33207
L53616 33207
" />
</g>
<g style="fill:#000000; fill-opacity:1.0; 
stroke:#000000; stroke-width:0; stroke-opacity:1; 
stroke-linecap:round; stroke-linejoin:round;">
<circle cx="53616.7" cy="33207.3" r="19.685" /> 
<g >
</g>
<g >
</g>
<g >
</g>
<g >
</g>
<g >
</g>
<g >
</g>
<g >
</g>
<g >
</g>
<g >
</g>
<g >
</g>
</g> 
</svg>
